<?xml version="1.0" standalone="no"?>
<!DOCTYPE svg PUBLIC "-//W3C//DTD SVG 20010904//EN"
 "http://www.w3.org/TR/2001/REC-SVG-20010904/DTD/svg10.dtd">
<svg version="1.0" xmlns="http://www.w3.org/2000/svg"
 width="48.000000pt" height="48.000000pt" viewBox="0 0 48.000000 48.000000"
 preserveAspectRatio="xMidYMid meet">

<g transform="translate(0.000000,48.000000) scale(0.100000,-0.100000)"
fill="#000000" stroke="none">
<path d="M200 450 c0 -13 12 -25 34 -34 38 -16 58 -42 80 -102 12 -34 12 -56
3 -125 -10 -78 -12 -81 -17 -42 -14 98 -115 133 -165 57 -41 -62 9 -148 83
-143 21 2 44 -1 51 -5 21 -14 -7 -26 -60 -26 -75 0 -143 58 -155 131 -8 49 53
203 96 242 17 15 26 27 22 27 -22 0 -62 -56 -92 -127 -17 -43 -36 -82 -41 -87
-15 -16 -24 4 -11 25 9 14 10 24 3 33 -8 9 -6 18 4 32 19 25 19 49 -2 70 -16
15 -17 15 -24 -2 -3 -11 -6 -59 -5 -109 1 -80 3 -90 19 -87 12 2 17 -4 17 -24
0 -43 31 -94 73 -122 33 -22 52 -27 102 -27 51 0 69 5 106 30 l44 29 -60 11
c-53 9 -58 12 -39 22 12 7 25 8 35 2 22 -14 141 -10 162 5 13 10 17 28 17 73
0 60 0 61 -31 67 -17 3 -43 6 -58 6 -24 0 -31 9 -63 80 -25 56 -32 80 -23 80
23 0 28 21 10 38 -10 10 -15 12 -11 6 3 -7 -5 -14 -20 -18 -33 -9 -49 1 -32
22 12 14 10 14 -9 3 -15 -7 -23 -8 -23 -1 0 5 -4 10 -10 10 -5 0 -10 -9 -10
-20z m157 -216 c-3 -3 -12 -4 -19 -1 -8 3 -5 6 6 6 11 1 17 -2 13 -5z m-133
-20 c4 -9 -1 -28 -9 -41 -20 -29 -68 -29 -73 0 -8 42 67 79 82 41z"/>
<path d="M143 323 c-22 -8 -14 -20 12 -20 14 0 25 3 25 7 0 11 -22 18 -37 13z"/>
<path d="M247 323 c-13 -13 -7 -20 18 -20 20 0 23 2 14 13 -13 15 -22 17 -32
7z"/>
<path d="M185 280 c3 -5 15 -10 25 -10 10 0 22 5 25 10 4 6 -7 10 -25 10 -18
0 -29 -4 -25 -10z"/>
</g>
</svg>
