<?xml version="1.0" standalone="no"?>
<!DOCTYPE svg PUBLIC "-//W3C//DTD SVG 20010904//EN"
 "http://www.w3.org/TR/2001/REC-SVG-20010904/DTD/svg10.dtd">
<svg version="1.0" xmlns="http://www.w3.org/2000/svg"
 width="450.000000pt" height="450.000000pt" viewBox="0 0 450.000000 450.000000"
 preserveAspectRatio="xMidYMid meet">
<metadata>
Created by potrace 1.14, written by Peter Selinger 2001-2017
</metadata>
<g transform="translate(0.000000,450.000000) scale(0.100000,-0.100000)"
fill="#000000" stroke="none">
<path d="M2410 4404 c-133 -28 -289 -135 -304 -211 -5 -22 -12 -30 -24 -28 -9
2 -21 4 -25 4 -5 1 -5 6 -2 11 13 21 12 155 -1 182 -24 48 -103 58 -162 20
-61 -38 -72 -74 -42 -132 24 -45 49 -136 41 -148 -3 -5 -35 -12 -71 -16 -36
-3 -90 -13 -120 -22 -78 -23 -220 -85 -220 -96 0 -5 -4 -7 -8 -4 -13 8 -172
-116 -232 -181 -82 -89 -110 -123 -126 -155 -8 -15 -18 -28 -22 -28 -4 0 -12
-10 -18 -23 -6 -12 -36 -70 -67 -129 -30 -58 -53 -109 -50 -112 4 -3 2 -6 -4
-6 -6 0 -13 -10 -17 -23 -3 -13 -18 -50 -33 -83 -14 -32 -27 -61 -28 -64 -4
-11 -18 -46 -30 -75 -7 -16 -25 -59 -39 -95 -32 -79 -39 -94 -62 -145 -10 -22
-18 -43 -19 -46 0 -3 -12 -33 -27 -65 -14 -33 -33 -75 -41 -94 -8 -19 -23 -53
-33 -75 -9 -22 -18 -42 -18 -45 -2 -6 -44 -113 -66 -165 -9 -22 -23 -56 -29
-75 -14 -38 -18 -47 -50 -130 -11 -31 -21 -63 -21 -73 0 -9 -5 -17 -12 -17 -6
0 -9 -3 -5 -6 3 -3 1 -19 -5 -34 -10 -29 -62 -68 -99 -73 -10 -2 -21 -6 -25
-9 -9 -10 -64 12 -65 25 0 17 0 244 0 295 1 35 4 42 21 42 11 0 29 9 40 20 11
11 20 17 20 13 2 -19 44 75 45 97 0 14 3 27 7 30 3 3 -4 25 -15 50 -20 42 -55
69 -107 83 -12 4 -14 18 -12 66 3 55 7 63 27 71 34 13 57 53 54 94 -3 29 4 42
43 84 47 50 85 113 92 154 3 13 5 25 6 28 2 3 2 9 1 13 -1 4 10 23 25 42 14
19 25 36 25 39 -1 3 0 9 0 14 3 20 -4 49 -17 63 -8 9 -21 42 -29 74 -15 57
-43 117 -57 123 -5 2 -8 9 -8 16 0 19 -80 91 -132 119 -59 32 -151 57 -212 57
-45 0 -46 -1 -46 -31 0 -29 2 -30 38 -28 33 2 68 -4 110 -17 7 -2 10 -9 7 -14
-5 -8 -11 -8 -20 0 -10 8 -15 8 -20 0 -4 -6 -14 -9 -22 -6 -8 4 -33 1 -54 -5
l-39 -12 0 -103 c0 -73 4 -104 13 -107 9 -4 9 -7 0 -18 -10 -10 -13 -185 -13
-804 l0 -790 37 -3 c20 -1 38 -3 39 -5 1 -1 5 -22 9 -46 6 -41 5 -43 -14 -38
-12 3 -24 1 -27 -4 -3 -5 -14 -5 -25 2 -19 10 -20 8 -17 -23 3 -28 7 -33 33
-36 44 -5 103 15 117 41 13 22 15 28 17 57 1 12 16 14 89 12 l88 -3 -1 -115
c-2 -263 37 -430 151 -656 39 -79 57 -111 64 -118 3 -3 25 -34 49 -69 69 -102
203 -242 301 -314 30 -22 57 -44 60 -47 3 -4 21 -15 40 -26 19 -10 37 -22 40
-25 7 -10 110 -69 124 -72 6 -1 18 -10 27 -19 9 -10 19 -15 23 -11 3 3 6 1 6
-5 0 -14 5 -14 -144 -17 -147 -3 -333 -14 -361 -20 -11 -3 -49 -7 -85 -10 -66
-4 -97 -8 -160 -20 -19 -4 -46 -9 -60 -10 -24 -4 -65 -13 -85 -20 -5 -1 -20
-6 -32 -10 -26 -8 -36 -30 -20 -43 7 -6 32 -17 57 -25 65 -22 1390 -25 1390
-3 0 9 -17 16 -47 20 -154 20 -182 26 -201 43 -7 7 -22 13 -33 13 -10 0 -19 4
-19 9 0 9 17 8 77 -5 16 -3 35 -6 43 -8 9 -1 20 -5 27 -9 12 -8 77 -20 111
-21 12 -1 22 -4 22 -8 0 -5 3 -7 8 -7 4 1 9 1 12 0 26 -10 429 -15 505 -6 85
9 133 17 205 32 41 8 86 17 100 19 l25 4 -26 -23 c-15 -13 -32 -34 -38 -46
l-12 -22 723 3 c720 3 723 3 771 25 26 12 47 27 47 32 0 16 -70 48 -125 56
-27 4 -61 9 -75 11 -14 2 -46 6 -72 8 -26 2 -51 7 -56 10 -6 3 -21 5 -33 5
-13 -1 -55 2 -94 5 -120 11 -205 15 -369 20 -87 3 -161 7 -163 10 -2 2 -17 1
-32 -4 -15 -4 -35 -4 -44 1 -8 5 -18 6 -21 1 -2 -4 -17 -7 -33 -6 -36 3 -36 3
-52 13 -18 12 -4 26 59 60 112 59 247 160 346 258 57 57 108 102 112 100 8 -5
81 -14 272 -31 35 -4 78 -9 95 -12 16 -4 68 -7 115 -8 80 -2 89 0 155 34 39
20 86 46 105 57 19 11 51 29 70 39 19 11 40 25 48 31 7 7 18 13 23 13 6 0 35
16 65 35 30 19 58 35 63 35 5 0 14 7 21 15 7 8 16 12 21 9 5 -3 9 -1 9 4 0 5
14 15 30 22 l30 12 0 719 c0 568 -3 719 -12 719 -7 1 -65 3 -128 5 -115 4
-334 14 -465 21 -38 2 -142 6 -230 9 -138 5 -203 9 -252 14 -6 0 -25 36 -43
79 -17 42 -37 91 -45 107 -7 17 -27 66 -45 110 -17 44 -37 93 -45 110 -7 16
-50 120 -95 230 -151 368 -252 584 -297 633 -7 7 -13 17 -13 21 0 4 -8 16 -18
27 -10 10 -29 35 -42 54 -14 19 -34 42 -45 52 -26 21 -21 25 45 32 52 5 95 13
95 16 0 1 7 3 15 5 76 17 163 69 237 141 60 58 58 83 -9 127 -29 19 -74 54
-100 78 -127 120 -160 148 -188 160 -16 8 -30 18 -30 22 0 5 -4 5 -10 2 -5 -3
-10 -1 -10 6 0 7 -3 9 -7 6 -3 -4 -11 -3 -17 2 -11 9 -73 30 -104 36 -9 2 -17
4 -17 5 0 9 -165 4 -215 -6z m-276 -309 c6 -17 2 -18 -33 -8 -23 6 -23 7 -5
14 28 11 31 11 38 -6z m-2023 -584 c-30 -26 -70 -33 -56 -10 3 4 12 6 20 2 18
-6 20 8 3 25 -9 9 -6 12 15 12 15 0 27 5 27 12 0 9 3 9 12 0 10 -10 5 -19 -21
-41z m-27 -113 c-7 -10 -52 33 -47 44 2 4 15 -2 28 -14 13 -12 22 -25 19 -30z
m40 23 c3 -5 -1 -11 -9 -15 -9 -3 -15 0 -15 9 0 16 16 20 24 6z m-4 -52 c0 -6
-4 -7 -10 -4 -5 3 -10 11 -10 16 0 6 5 7 10 4 6 -3 10 -11 10 -16z m-20 -40
c0 6 4 11 9 11 5 0 7 -9 4 -20 -7 -26 -36 -22 -42 5 -3 17 -1 18 13 6 10 -9
16 -10 16 -2z m76 -27 c-22 -5 -30 3 -21 18 5 8 11 7 22 -2 15 -12 14 -13 -1
-16z"/>
</g>
</svg>
